<?xml version="1.0" encoding="utf-8"?>
<!-- Generator: Adobe Illustrator 25.4.1, SVG Export Plug-In . SVG Version: 6.00 Build 0)  -->
<svg version="1.1" id="Camada_1" xmlns="http://www.w3.org/2000/svg" xmlns:xlink="http://www.w3.org/1999/xlink" x="0px" y="0px"
	 viewBox="0 0 2889 2837.3" style="enable-background:new 0 0 2889 2837.3;" xml:space="preserve">
<g>
	<rect x="3.2" y="11.5" width="115.3" height="680"/>
	<rect x="3.2" y="691.5" width="115.3" height="113.3"/>
	<rect x="3.2" y="918.1" width="115.3" height="226.7"/>
	<rect x="3.2" y="1258.2" width="115.3" height="113.3"/>
	<rect x="3.2" y="1484.8" width="115.3" height="453.3"/>
	<rect x="3.2" y="2051.5" width="115.3" height="226.7"/>
	<rect x="3.2" y="2278.2" width="115.3" height="340"/>
	<rect x="3.2" y="2618.2" width="115.3" height="226.7"/>
	<rect x="118.5" y="11.5" width="115.3" height="113.3"/>
	<rect x="118.5" y="691.5" width="115.3" height="113.3"/>
	<rect x="118.5" y="1031.5" width="115.3" height="226.7"/>
	<rect x="118.5" y="1258.2" width="115.3" height="453.3"/>
	<rect x="118.5" y="2051.5" width="115.3" height="113.3"/>
	<rect x="118.5" y="2731.5" width="115.3" height="113.3"/>
	<rect x="233.9" y="11.5" width="115.3" height="113.3"/>
	<rect x="233.9" y="238.1" width="115.3" height="340"/>
	<rect x="233.9" y="691.5" width="115.3" height="113.3"/>
	<rect x="233.9" y="1371.5" width="115.3" height="340"/>
	<rect x="233.9" y="1824.8" width="115.3" height="113.3"/>
	<rect x="233.9" y="2051.5" width="115.3" height="113.3"/>
	<rect x="233.9" y="2278.2" width="115.3" height="340"/>
	<rect x="233.9" y="2731.5" width="115.3" height="113.3"/>
	<rect x="349.2" y="11.5" width="115.3" height="113.3"/>
	<rect x="349.2" y="238.1" width="115.3" height="340"/>
	<rect x="349.2" y="691.5" width="115.3" height="113.3"/>
	<rect x="349.2" y="918.1" width="115.3" height="113.3"/>
	<rect x="349.2" y="1144.8" width="115.3" height="113.3"/>
	<rect x="349.2" y="1258.2" width="115.3" height="113.3"/>
	<rect x="349.2" y="1484.8" width="115.3" height="113.3"/>
	<rect x="349.2" y="2051.5" width="115.3" height="113.3"/>
	<rect x="349.2" y="2278.2" width="115.3" height="340"/>
	<rect x="349.2" y="2731.5" width="115.3" height="113.3"/>
	<rect x="464.5" y="11.5" width="115.3" height="113.3"/>
	<rect x="464.5" y="238.1" width="115.3" height="340"/>
	<rect x="464.5" y="691.5" width="115.3" height="113.3"/>
	<rect x="464.5" y="918.1" width="115.3" height="113.3"/>
	<rect x="464.5" y="1144.8" width="115.3" height="113.3"/>
	<rect x="464.5" y="1258.2" width="115.3" height="113.3"/>
	<rect x="464.5" y="1598.2" width="115.3" height="113.3"/>
	<rect x="464.5" y="2051.5" width="115.3" height="113.3"/>
	<rect x="464.5" y="2278.2" width="115.3" height="340"/>
	<rect x="464.5" y="2731.5" width="115.3" height="113.3"/>
	<rect x="579.9" y="11.5" width="115.3" height="113.3"/>
	<rect x="579.9" y="691.5" width="115.3" height="113.3"/>
	<rect x="579.9" y="918.1" width="115.3" height="113.3"/>
	<rect x="579.9" y="1258.2" width="115.3" height="226.7"/>
	<rect x="579.9" y="1598.2" width="115.3" height="113.3"/>
	<rect x="579.9" y="2051.5" width="115.3" height="113.3"/>
	<rect x="579.9" y="2731.5" width="115.3" height="113.3"/>
	<rect x="695.2" y="11.5" width="115.3" height="680"/>
	<rect x="695.2" y="691.5" width="115.3" height="113.3"/>
	<rect x="695.2" y="918.1" width="115.3" height="113.3"/>
	<rect x="695.2" y="1144.8" width="115.3" height="113.3"/>
	<rect x="695.2" y="1371.5" width="115.3" height="113.3"/>
	<rect x="695.2" y="1598.2" width="115.3" height="113.3"/>
	<rect x="695.2" y="1824.8" width="115.3" height="113.3"/>
	<rect x="695.2" y="2051.5" width="115.3" height="226.7"/>
	<rect x="695.2" y="2278.2" width="115.3" height="340"/>
	<rect x="695.2" y="2618.2" width="115.3" height="226.7"/>
	<rect x="810.5" y="918.1" width="115.3" height="113.3"/>
	<rect x="810.5" y="1144.8" width="115.3" height="113.3"/>
	<rect x="810.5" y="1484.8" width="115.3" height="453.3"/>
	<rect x="925.8" y="11.5" width="115.3" height="340"/>
	<rect x="925.8" y="464.8" width="115.3" height="113.3"/>
	<rect x="925.8" y="691.5" width="115.3" height="113.3"/>
	<rect x="925.8" y="918.1" width="115.3" height="226.7"/>
	<rect x="925.8" y="1484.8" width="115.3" height="113.3"/>
	<rect x="925.8" y="1711.5" width="115.3" height="226.7"/>
	<rect x="925.8" y="1938.2" width="115.3" height="340"/>
	<rect x="925.8" y="2278.2" width="115.3" height="226.7"/>
	<rect x="925.8" y="2731.5" width="115.3" height="113.3"/>
	<rect x="1041.2" y="124.8" width="115.3" height="226.7"/>
	<rect x="1041.2" y="578.1" width="115.3" height="113.3"/>
	<rect x="1041.2" y="804.8" width="115.3" height="453.3"/>
	<rect x="1041.2" y="1258.2" width="115.3" height="113.3"/>
	<rect x="1041.2" y="1598.2" width="115.3" height="226.7"/>
	<rect x="1041.2" y="1938.2" width="115.3" height="113.3"/>
	<rect x="1041.2" y="2278.2" width="115.3" height="113.3"/>
	<rect x="1041.2" y="2504.8" width="115.3" height="113.3"/>
	<rect x="1041.2" y="2731.5" width="115.3" height="113.3"/>
	<rect x="1156.5" y="238.1" width="115.3" height="113.3"/>
	<rect x="1156.5" y="464.8" width="115.3" height="226.7"/>
	<rect x="1156.5" y="691.5" width="115.3" height="113.3"/>
	<rect x="1156.5" y="918.1" width="115.3" height="113.3"/>
	<rect x="1156.5" y="1258.2" width="115.3" height="113.3"/>
	<rect x="1156.5" y="1484.8" width="115.3" height="226.7"/>
	<rect x="1156.5" y="1938.2" width="115.3" height="226.7"/>
	<rect x="1156.5" y="2278.2" width="115.3" height="226.7"/>
	<rect x="1156.5" y="2618.2" width="115.3" height="113.3"/>
	<rect x="1271.8" y="124.8" width="115.3" height="113.3"/>
	<rect x="1271.8" y="351.5" width="115.3" height="113.3"/>
	<rect x="1271.8" y="578.1" width="115.3" height="113.3"/>
	<rect x="1271.8" y="918.1" width="115.3" height="113.3"/>
	<rect x="1271.8" y="1144.8" width="115.3" height="113.3"/>
	<rect x="1271.8" y="1258.2" width="115.3" height="113.3"/>
	<rect x="1271.8" y="1598.2" width="115.3" height="226.7"/>
	<rect x="1271.8" y="1938.2" width="115.3" height="226.7"/>
	<rect x="1387.2" y="124.8" width="115.3" height="113.3"/>
	<rect x="1387.2" y="464.8" width="115.3" height="113.3"/>
	<rect x="1387.2" y="691.5" width="115.3" height="226.7"/>
	<rect x="1387.2" y="1144.8" width="115.3" height="113.3"/>
	<rect x="1387.2" y="1258.2" width="115.3" height="226.7"/>
	<rect x="1387.2" y="1598.2" width="115.3" height="113.3"/>
	<rect x="1387.2" y="1938.2" width="115.3" height="113.3"/>
	<rect x="1387.2" y="2164.8" width="115.3" height="113.3"/>
	<rect x="1387.2" y="2278.2" width="115.3" height="113.3"/>
	<rect x="1387.2" y="2504.8" width="115.3" height="113.3"/>
	<rect x="1387.2" y="2731.5" width="115.3" height="113.3"/>
	<rect x="1502.5" y="238.1" width="115.3" height="453.3"/>
	<rect x="1502.5" y="804.8" width="115.3" height="113.3"/>
	<rect x="1502.5" y="1144.8" width="115.3" height="113.3"/>
	<rect x="1502.5" y="1824.8" width="115.3" height="113.3"/>
	<rect x="1502.5" y="1938.2" width="115.3" height="340"/>
	<rect x="1502.5" y="2391.5" width="115.3" height="226.7"/>
	<rect x="1502.5" y="2731.5" width="115.3" height="113.3"/>
	<rect x="1617.8" y="11.5" width="115.3" height="680"/>
	<rect x="1617.8" y="691.5" width="115.3" height="566.7"/>
	<rect x="1617.8" y="1258.2" width="115.3" height="113.3"/>
	<rect x="1617.8" y="1484.8" width="115.3" height="226.7"/>
	<rect x="1617.8" y="2391.5" width="115.3" height="113.3"/>
	<rect x="1617.8" y="2618.2" width="115.3" height="226.7"/>
	<rect x="1733.1" y="238.1" width="115.3" height="113.3"/>
	<rect x="1733.1" y="1031.5" width="115.3" height="226.7"/>
	<rect x="1733.1" y="1258.2" width="115.3" height="453.3"/>
	<rect x="1733.1" y="1824.8" width="115.3" height="113.3"/>
	<rect x="1733.1" y="2164.8" width="115.3" height="113.3"/>
	<rect x="1733.1" y="2278.2" width="115.3" height="113.3"/>
	<rect x="1848.5" y="124.8" width="115.3" height="453.3"/>
	<rect x="1848.5" y="691.5" width="115.3" height="113.3"/>
	<rect x="1848.5" y="918.1" width="115.3" height="113.3"/>
	<rect x="1848.5" y="1484.8" width="115.3" height="113.3"/>
	<rect x="1848.5" y="1711.5" width="115.3" height="226.7"/>
	<rect x="1848.5" y="1938.2" width="115.3" height="340"/>
	<rect x="1848.5" y="2278.2" width="115.3" height="340"/>
	<rect x="1848.5" y="2731.5" width="115.3" height="113.3"/>
	<rect x="1963.8" y="918.1" width="115.3" height="226.7"/>
	<rect x="1963.8" y="1371.5" width="115.3" height="113.3"/>
	<rect x="1963.8" y="1598.2" width="115.3" height="113.3"/>
	<rect x="1963.8" y="1824.8" width="115.3" height="113.3"/>
	<rect x="1963.8" y="2278.2" width="115.3" height="340"/>
	<rect x="1963.8" y="2731.5" width="115.3" height="113.3"/>
	<rect x="2079.1" y="11.5" width="115.3" height="680"/>
	<rect x="2079.1" y="691.5" width="115.3" height="113.3"/>
	<rect x="2079.1" y="1144.8" width="115.3" height="113.3"/>
	<rect x="2079.1" y="1371.5" width="115.3" height="113.3"/>
	<rect x="2079.1" y="1824.8" width="115.3" height="113.3"/>
	<rect x="2079.1" y="2051.5" width="115.3" height="113.3"/>
	<rect x="2079.1" y="2278.2" width="115.3" height="226.7"/>
	<rect x="2079.1" y="2618.2" width="115.3" height="113.3"/>
	<rect x="2194.5" y="11.5" width="115.3" height="113.3"/>
	<rect x="2194.5" y="691.5" width="115.3" height="113.3"/>
	<rect x="2194.5" y="1031.5" width="115.3" height="226.7"/>
	<rect x="2194.5" y="1258.2" width="115.3" height="113.3"/>
	<rect x="2194.5" y="1711.5" width="115.3" height="226.7"/>
	<rect x="2194.5" y="2278.2" width="115.3" height="340"/>
	<rect x="2194.5" y="2618.2" width="115.3" height="113.3"/>
	<rect x="2309.8" y="11.5" width="115.3" height="113.3"/>
	<rect x="2309.8" y="238.1" width="115.3" height="340"/>
	<rect x="2309.8" y="691.5" width="115.3" height="113.3"/>
	<rect x="2309.8" y="918.1" width="115.3" height="226.7"/>
	<rect x="2309.8" y="1484.8" width="115.3" height="453.3"/>
	<rect x="2309.8" y="1938.2" width="115.3" height="340"/>
	<rect x="2309.8" y="2278.2" width="115.3" height="113.3"/>
	<rect x="2309.8" y="2504.8" width="115.3" height="113.3"/>
	<rect x="2309.8" y="2618.2" width="115.3" height="113.3"/>
	<rect x="2425.1" y="11.5" width="115.3" height="113.3"/>
	<rect x="2425.1" y="238.1" width="115.3" height="340"/>
	<rect x="2425.1" y="691.5" width="115.3" height="113.3"/>
	<rect x="2425.1" y="1031.5" width="115.3" height="226.7"/>
	<rect x="2425.1" y="1258.2" width="115.3" height="113.3"/>
	<rect x="2425.1" y="1598.2" width="115.3" height="113.3"/>
	<rect x="2425.1" y="2051.5" width="115.3" height="113.3"/>
	<rect x="2425.1" y="2278.2" width="115.3" height="226.7"/>
	<rect x="2425.1" y="2731.5" width="115.3" height="113.3"/>
	<rect x="2540.4" y="11.5" width="115.3" height="113.3"/>
	<rect x="2540.4" y="238.1" width="115.3" height="340"/>
	<rect x="2540.4" y="691.5" width="115.3" height="113.3"/>
	<rect x="2540.4" y="918.1" width="115.3" height="226.7"/>
	<rect x="2540.4" y="1258.2" width="115.3" height="113.3"/>
	<rect x="2540.4" y="1598.2" width="115.3" height="340"/>
	<rect x="2540.4" y="2504.8" width="115.3" height="113.3"/>
	<rect x="2540.4" y="2618.2" width="115.3" height="113.3"/>
	<rect x="2655.8" y="11.5" width="115.3" height="113.3"/>
	<rect x="2655.8" y="691.5" width="115.3" height="113.3"/>
	<rect x="2655.8" y="918.1" width="115.3" height="226.7"/>
	<rect x="2655.8" y="1258.2" width="115.3" height="113.3"/>
	<rect x="2655.8" y="1484.8" width="115.3" height="226.7"/>
	<rect x="2655.8" y="1824.8" width="115.3" height="113.3"/>
	<rect x="2655.8" y="1938.2" width="115.3" height="113.3"/>
	<rect x="2655.8" y="2164.8" width="115.3" height="113.3"/>
	<rect x="2655.8" y="2278.2" width="115.3" height="340"/>
	<rect x="2655.8" y="2618.2" width="115.3" height="113.3"/>
	<rect x="2771.1" y="11.5" width="115.3" height="680"/>
	<rect x="2771.1" y="691.5" width="115.3" height="113.3"/>
	<rect x="2771.1" y="918.1" width="115.3" height="113.3"/>
	<rect x="2771.1" y="1144.8" width="115.3" height="113.3"/>
	<rect x="2771.1" y="1258.2" width="115.3" height="226.7"/>
	<rect x="2771.1" y="1598.2" width="115.3" height="226.7"/>
	<rect x="2771.1" y="2051.5" width="115.3" height="113.3"/>
	<rect x="2771.1" y="2278.2" width="115.3" height="340"/>
	<rect x="2771.1" y="2618.2" width="115.3" height="226.7"/>
</g>
</svg>
